<svg id="Lager_1" data-name="Lager 1" xmlns="http://www.w3.org/2000/svg" xmlns:xlink="http://www.w3.org/1999/xlink" viewBox="0 0 3247.23 773.13"><defs><style>.cls-1{fill:#464646;}.cls-2{fill:url(#Ny_övertoningsruta_5);}.cls-3{fill:url(#Ny_övertoningsruta_5-2);}.cls-4{fill:url(#Ny_övertoningsruta_5-3);}</style><linearGradient id="Ny_övertoningsruta_5" x1="9077.91" y1="1488.94" x2="10138.25" y2="1488.94" gradientUnits="userSpaceOnUse"><stop offset="0" stop-color="#ff64ff"/><stop offset="1" stop-color="#64beff"/></linearGradient><linearGradient id="Ny_övertoningsruta_5-2" x1="8986.4" y1="1598.06" x2="10229.76" y2="1598.06" xlink:href="#Ny_övertoningsruta_5"/><linearGradient id="Ny_övertoningsruta_5-3" x1="9032.17" y1="1543.37" x2="10183.99" y2="1543.37" xlink:href="#Ny_övertoningsruta_5"/></defs><title>albacross_logo</title><path class="cls-1" d="M10645.68,1707H10606l-37-103h-123.12c-11.73,34-24.8,69-36.08,103h-40.14l112.19-312.89s6-17.1,25.37-17.1,25.39,17.12,25.39,17.12Zm-89.75-140c-17.59-50-30.67-87.52-48.71-138.5-16.24,46.92-31.57,90.5-48.71,138.5h97.42Z" transform="translate(-8986.4 -1157.39)"/><path class="cls-1" d="M10762.4,1711.35c-51,0-79-28.42-79-76.24V1391h36v244.11c0,25.72,13,42.41,43,42.41v33.84Z" transform="translate(-8986.4 -1157.39)"/><path class="cls-1" d="M10838.4,1483.07a122.51,122.51,0,0,1,56.94-14.44c45.55,0,88.06,24.81,88.06,78v87.07c0,51.88-44.72,76.7-89.37,77.6-29.77,0-61.63-6.32-91.63-16.69V1391h36v92.07Zm0,188.58c17,5.41,36.86,7.22,55.35,7.22,26.61,0,52.65-16.69,52.65-45.11v-87.52c0-29.32-25.59-45.11-52.65-45.57-17.59,0-38.35,3.61-55.35,13.08v157.9Z" transform="translate(-8986.4 -1157.39)"/><path class="cls-1" d="M11172.4,1544c0-27.07-27-42-55-42-20.75,0-43.74,8.12-57.72,25.26l-22.55-22.11c21.65-23.91,53.61-36.54,82.93-36.54,44.65,0,88.34,24.81,88.34,75.34v151.59a280.53,280.53,0,0,1-96.46,15.79c-46.9-.45-83.41-23-83.41-73.09,0.45-51.43,41.94-74.44,87.94-74.44a141.75,141.75,0,0,1,55.92,11.28V1544Zm0,57.3a164.38,164.38,0,0,0-52.3-9c-29.31,0-55.46,12.63-55.92,46,0,29.78,21.18,42,48.69,42.41,19.84,0.45,40.52-.45,59.52-4.51v-74.89Z" transform="translate(-8986.4 -1157.39)"/><path class="cls-1" d="M11409.66,1531.79c-14.88-23.91-34.56-27.07-55.3-27.07-27.06,0-54,13.53-54,42v87.52c0,27.52,25.09,43.31,54.4,43.31,23,0,47.27-9.47,58.09-37l28.82,13.53c-13.53,38.8-51.23,57.3-87.31,57.3-44.65,0-90-25.72-90-78v-86.62c0-52.33,45.34-78,90-78,32.92,0,60.78,9.47,83.78,46.47Z" transform="translate(-8986.4 -1157.39)"/><path class="cls-1" d="M11596.4,1504.27c-7-1.35-12.77-1.35-19.09-1.35-28.41,0-52.91,14.89-52.91,43.76V1707h-36V1546.68c0-52.78,46.56-77.6,87.6-78a105.55,105.55,0,0,1,20.4,1.8v33.84Z" transform="translate(-8986.4 -1157.39)"/><path class="cls-1" d="M11628.4,1546.68c0-51.88,45.35-77.6,90.45-78,44.65,0.45,89.55,26.17,89.55,78v86.62c0,52.33-44.9,77.6-89.55,78-45.1-.45-90.45-25.72-90.45-78v-86.62Zm36-.9v88c0,29.32,28.29,43.31,54.45,43.31,25.26,0,53.55-14,53.55-43.31v-88c0-29.32-28.29-42.86-53.55-42.86C11692.69,1502.92,11664.4,1516.45,11664.4,1545.78Z" transform="translate(-8986.4 -1157.39)"/><path class="cls-1" d="M11879.14,1644.13c15.78,23.46,42.84,33.84,66.75,33.84,21.2,0,43.75-13.08,43.3-37,0-25.26-25.26-31.13-46-35.19-38.33-6.77-82.08-18.5-82.08-68.57,0-49.18,46.45-68.57,84.79-68.57,24.35,0,51,9,70.36,28l-22.1,25.72a65.85,65.85,0,0,0-48.26-20.3c-20.29,0-49.16,8.12-49.16,34.29,0,27.07,32.47,32,52.77,35.64,36.53,6.77,74.87,22.11,75.32,69.48,0,46.47-38.79,69.93-78.92,69.93-36.53,0-71.26-12.63-93.81-48.72Z" transform="translate(-8986.4 -1157.39)"/><path class="cls-1" d="M12087.95,1644.13c15.78,23.46,42.84,33.84,66.75,33.84,21.2,0,43.75-13.08,43.3-37,0-25.26-25.26-31.13-46-35.19-38.33-6.77-82.08-18.5-82.08-68.57,0-49.18,46.45-68.57,84.79-68.57,24.35,0,51,9,70.36,28l-22.1,25.72a65.85,65.85,0,0,0-48.26-20.3c-20.29,0-49.16,8.12-49.16,34.29,0,27.07,32.47,32,52.77,35.64,36.53,6.77,74.87,22.11,75.32,69.48,0,46.47-38.79,69.93-78.92,69.93-36.53,0-71.26-12.63-93.81-48.72Z" transform="translate(-8986.4 -1157.39)"/><path class="cls-2" d="M10133.16,1681.68a10.78,10.78,0,0,0-14.84,3.46L10055.64,1786a26.57,26.57,0,0,1-24,12.88c-8.46-.4-15.36-4.75-18.92-11.93-42.46-85.56-241.48-491.25-267.27-543.62-26.12-53-78.79-86-137.35-86s-111.23,32.93-137.35,86c-25.79,52.37-224.81,458.06-267.27,543.62-3.56,7.18-10.46,11.53-18.92,11.93a26.57,26.57,0,0,1-24-12.88l-62.68-100.88a10.78,10.78,0,0,0-18.31,11.37l62.68,100.88a48.49,48.49,0,0,0,43.34,23c16.26-.77,30.16-9.7,37.2-23.88,42.49-85.6,241.52-491.32,267.3-543.68,22.8-46.31,67-73.94,118-73.94s95.21,27.63,118,73.94c25.78,52.36,224.82,458.08,267.3,543.68,7,14.18,20.94,23.1,37.2,23.88a48.49,48.49,0,0,0,43.34-23l62.68-100.88A10.78,10.78,0,0,0,10133.16,1681.68Z" transform="translate(-8986.4 -1157.39)"/><path class="cls-3" d="M10224.67,1738.52a10.78,10.78,0,0,0-14.84,3.47l-64.52,103.9c-25.59,41.2-71.26,65.31-119.14,62.92-47.33-2.36-88.52-30.12-110.16-74.25-19.15-39-199.73-406.66-267.3-543.67a45.27,45.27,0,0,0-81.24,0c-67.57,137-248.15,504.64-267.3,543.67-21.65,44.13-62.83,71.89-110.16,74.25-47.88,2.39-93.55-21.72-119.14-62.92L9006.33,1742a10.78,10.78,0,1,0-18.31,11.37l64.52,103.9c29.72,47.85,82.8,75.85,138.52,73.08,55.27-2.76,103.29-35,128.44-86.28,19.15-39,199.72-406.63,267.28-543.63a23.72,23.72,0,0,1,42.59,0c67.56,137,248.13,504.6,267.28,543.63,25.15,51.27,73.16,83.52,128.44,86.28,55.73,2.77,108.8-25.22,138.52-73.08l64.52-103.9A10.78,10.78,0,0,0,10224.67,1738.52Z" transform="translate(-8986.4 -1157.39)"/><path class="cls-4" d="M10178.9,1710.1a10.78,10.78,0,0,0-14.84,3.47l-64.52,103.9a77.39,77.39,0,0,1-135.19-6.68c-20.23-41.14-219.24-446.28-267.3-543.66-17-34.53-51.14-56-89-56s-71.93,21.44-89,56c-48.05,97.38-247.07,502.53-267.3,543.66a77.39,77.39,0,0,1-135.19,6.68l-64.52-103.9a10.78,10.78,0,1,0-18.31,11.37l64.52,103.9a98.94,98.94,0,0,0,172.84-8.54c20.23-41.14,219.24-446.27,267.28-543.64,13.58-27.53,39.63-43.95,69.65-43.95s56.06,16.42,69.65,43.95c48,97.36,247.06,502.5,267.28,543.64a98.94,98.94,0,0,0,172.84,8.54l64.52-103.9A10.78,10.78,0,0,0,10178.9,1710.1Z" transform="translate(-8986.4 -1157.39)"/></svg>